<mxfile host="app.diagrams.net" agent="Mozilla/5.0 (Macintosh; Intel Mac OS X 10_15_7) AppleWebKit/537.36 (KHTML, like Gecko) Chrome/135.0.0.0 Safari/537.36" version="26.0.6">
  <diagram name="Page-1" id="_W8FNcgs0rQuaxuvfJtf">
    <mxGraphModel dx="1194" dy="731" grid="0" gridSize="10" guides="1" tooltips="1" connect="1" arrows="1" fold="1" page="1" pageScale="1" pageWidth="850" pageHeight="1100" background="none" math="0" shadow="0">
      <root>
        <mxCell id="0" />
        <mxCell id="1" parent="0" />
        <mxCell id="B3-xOHSUtuc2O_1f22L1-3" value="" style="edgeStyle=orthogonalEdgeStyle;rounded=0;hachureGap=4;orthogonalLoop=1;jettySize=auto;html=1;fontFamily=Architects Daughter;fontSource=https%3A%2F%2Ffonts.googleapis.com%2Fcss%3Ffamily%3DArchitects%2BDaughter;" parent="1" source="B3-xOHSUtuc2O_1f22L1-1" target="B3-xOHSUtuc2O_1f22L1-2" edge="1">
          <mxGeometry relative="1" as="geometry" />
        </mxCell>
        <mxCell id="B3-xOHSUtuc2O_1f22L1-5" style="edgeStyle=orthogonalEdgeStyle;rounded=0;orthogonalLoop=1;jettySize=auto;html=1;entryX=0;entryY=0.5;entryDx=0;entryDy=0;" parent="1" source="B3-xOHSUtuc2O_1f22L1-1" target="B3-xOHSUtuc2O_1f22L1-2" edge="1">
          <mxGeometry relative="1" as="geometry" />
        </mxCell>
        <mxCell id="B3-xOHSUtuc2O_1f22L1-1" value="" style="aspect=fixed;html=1;dashed=0;whitespace=wrap;verticalLabelPosition=bottom;verticalAlign=top;fillColor=#2875E2;strokeColor=#ffffff;points=[[0.005,0.63,0],[0.1,0.2,0],[0.9,0.2,0],[0.5,0,0],[0.995,0.63,0],[0.72,0.99,0],[0.5,1,0],[0.28,0.99,0]];shape=mxgraph.kubernetes.icon2;kubernetesLabel=1;prIcon=user;hachureGap=4;fontFamily=Architects Daughter;fontSource=https%3A%2F%2Ffonts.googleapis.com%2Fcss%3Ffamily%3DArchitects%2BDaughter;" parent="1" vertex="1">
          <mxGeometry x="28" y="165" width="50" height="48" as="geometry" />
        </mxCell>
        <mxCell id="B3-xOHSUtuc2O_1f22L1-2" value="&lt;br&gt;&lt;div&gt;&lt;font style=&quot;font-size: 19px;&quot;&gt;Register&lt;/font&gt;&lt;/div&gt;" style="whiteSpace=wrap;html=1;fontFamily=Architects Daughter;verticalAlign=top;fillColor=#2875E2;strokeColor=#ffffff;dashed=0;hachureGap=4;fontSource=https%3A%2F%2Ffonts.googleapis.com%2Fcss%3Ffamily%3DArchitects%2BDaughter;align=center;" parent="1" vertex="1">
          <mxGeometry x="139" y="159" width="120" height="60" as="geometry" />
        </mxCell>
        <mxCell id="B3-xOHSUtuc2O_1f22L1-10" value="" style="endArrow=classic;startArrow=classic;html=1;rounded=0;entryX=-0.027;entryY=0.522;entryDx=0;entryDy=0;exitX=0.5;exitY=0;exitDx=0;exitDy=0;entryPerimeter=0;" parent="1" source="B3-xOHSUtuc2O_1f22L1-2" target="B3-xOHSUtuc2O_1f22L1-12" edge="1">
          <mxGeometry width="50" height="50" relative="1" as="geometry">
            <mxPoint x="411" y="326" as="sourcePoint" />
            <mxPoint x="289" y="67" as="targetPoint" />
            <Array as="points">
              <mxPoint x="199" y="69" />
            </Array>
          </mxGeometry>
        </mxCell>
        <mxCell id="B3-xOHSUtuc2O_1f22L1-11" value="Through Laravel App" style="edgeLabel;html=1;align=center;verticalAlign=middle;resizable=0;points=[];" parent="B3-xOHSUtuc2O_1f22L1-10" vertex="1" connectable="0">
          <mxGeometry x="0.0336" y="4" relative="1" as="geometry">
            <mxPoint y="1" as="offset" />
          </mxGeometry>
        </mxCell>
        <mxCell id="B3-xOHSUtuc2O_1f22L1-12" value="MySQL" style="html=1;verticalLabelPosition=bottom;align=center;labelBackgroundColor=#ffffff;verticalAlign=top;strokeWidth=2;strokeColor=#0080F0;shadow=0;dashed=0;shape=mxgraph.ios7.icons.data;" parent="1" vertex="1">
          <mxGeometry x="291" y="36" width="74" height="67" as="geometry" />
        </mxCell>
        <mxCell id="B3-xOHSUtuc2O_1f22L1-16" value="MongoDB" style="html=1;verticalLabelPosition=bottom;align=center;labelBackgroundColor=#ffffff;verticalAlign=top;strokeWidth=2;strokeColor=#0080F0;shadow=0;dashed=0;shape=mxgraph.ios7.icons.data;" parent="1" vertex="1">
          <mxGeometry x="669" y="36" width="74" height="67" as="geometry" />
        </mxCell>
      </root>
    </mxGraphModel>
  </diagram>
</mxfile>
